<?xml version="1.0" encoding="utf-8"?>
<!-- Generator: Adobe Illustrator 23.0.1, SVG Export Plug-In . SVG Version: 6.00 Build 0)  -->
<svg version="1.1" id="Layer_1" xmlns="http://www.w3.org/2000/svg" xmlns:xlink="http://www.w3.org/1999/xlink" x="0px" y="0px"
	 viewBox="0 0 13.3 15.3" style="enable-background:new 0 0 13.3 15.3;" xml:space="preserve">
<style type="text/css">
	.st0{fill:#18B8C4;}
</style>
<g id="Shopping_bag" transform="translate(-40 -8)">
	<path id="Path_20" class="st0" d="M41.2,22.3h2.2c0.1,0,0.2-0.1,0.2-0.2c0-0.1-0.1-0.2-0.2-0.2h-2.2c-0.1,0-0.2,0.1-0.2,0.2
		C41,22.2,41.1,22.3,41.2,22.3z"/>
	<path id="Path_21" class="st0" d="M44.2,22.3h0.2c0.1,0,0.2-0.1,0.2-0.2c0-0.1-0.1-0.2-0.2-0.2h-0.2c-0.1,0-0.2,0.1-0.2,0.2
		C43.9,22.2,44,22.3,44.2,22.3L44.2,22.3z"/>
	<path id="Path_22" class="st0" d="M50.8,9c-1,0-1.9,0.6-2.3,1.5h-0.7V9.2c0-0.7-0.6-1.2-1.2-1.2h-3c-0.7,0-1.2,0.6-1.2,1.2v1.2
		h-2.2c-0.1,0-0.2,0.1-0.2,0.2V22c0,0.7,0.6,1.2,1.2,1.2h7.9c0.7,0,1.2-0.6,1.2-1.2v-8.2c1.3,0.3,2.6-0.6,2.9-1.9
		c0.3-1.3-0.6-2.6-1.9-2.9C51.1,9,51,9,50.8,9z M43,9.2c0-0.4,0.3-0.7,0.7-0.7h3c0.4,0,0.7,0.3,0.7,0.7v1.2H43L43,9.2z M49.8,22
		c0,0.4-0.3,0.7-0.7,0.7h-7.9c-0.4,0-0.7-0.3-0.7-0.7v-0.5h9.4V22z M49.8,21.1h-9.4V11h2v1c0,0.1,0.1,0.2,0.2,0.2
		c0.1,0,0.2-0.1,0.2-0.2l0,0v-1h4.4v1c0,0.1,0.1,0.2,0.2,0.2c0.1,0,0.2-0.1,0.2-0.2l0,0v-1h0.5c-0.2,1.1,0.4,2.3,1.4,2.8L49.8,21.1z
		 M50.8,13.4c-1.1,0-2-0.9-2-2c0-1.1,0.9-2,2-2c1.1,0,2,0.9,2,2c0,0,0,0,0,0C52.8,12.5,51.9,13.4,50.8,13.4
		C50.8,13.4,50.8,13.4,50.8,13.4L50.8,13.4z"/>
	<path id="Path_23" class="st0" d="M51.6,11.2h-0.5v-0.5c0-0.1-0.1-0.2-0.2-0.2c-0.1,0-0.2,0.1-0.2,0.2v0.5h-0.5
		c-0.1,0-0.2,0.1-0.2,0.2s0.1,0.2,0.2,0.2l0,0h0.5v0.5c0,0.1,0.1,0.2,0.2,0.2c0.1,0,0.2-0.1,0.2-0.2v-0.5h0.5c0.1,0,0.2-0.1,0.2-0.2
		S51.7,11.2,51.6,11.2z"/>
</g>
</svg>
