<?xml version="1.0" encoding="utf-8"?>
<!-- Generator: Adobe Illustrator 23.0.1, SVG Export Plug-In . SVG Version: 6.00 Build 0)  -->
<svg version="1.1" id="Layer_1" xmlns="http://www.w3.org/2000/svg" xmlns:xlink="http://www.w3.org/1999/xlink" x="0px" y="0px"
	 viewBox="0 0 13.3 13.3" style="enable-background:new 0 0 13.3 13.3;" xml:space="preserve">
<style type="text/css">
	.st0{fill:#18B8C4;}
</style>
<g id="Expanded" transform="translate(0 -2.616)">
	<g id="Group_4" transform="translate(0 2.616)">
		<g id="Group_1" transform="translate(1.662 7.198)">
			<path id="Path_1" class="st0" d="M10,6.1H6.1V2.5H3.9v3.6H0V0.3C0,0.1,0.1,0,0.3,0c0.2,0,0.3,0.1,0.3,0.3v5.3h2.8V1.9h3.3v3.6
				h2.8v-5c0-0.2,0.1-0.3,0.3-0.3c0.2,0,0.3,0.1,0.3,0.3V6.1z"/>
		</g>
		<g id="Group_2" transform="translate(0 0)">
			<path id="Path_2" class="st0" d="M13,6.8c-0.1,0-0.1,0-0.2-0.1L6.6,0.8L0.5,6.7c-0.1,0.1-0.3,0.1-0.4,0C0,6.5,0,6.4,0.1,6.3
				L6.6,0l6.6,6.3c0.1,0.1,0.1,0.3,0,0.4C13.2,6.7,13.1,6.8,13,6.8z"/>
		</g>
		<g id="Group_3" transform="translate(8.584 0.937)">
			<path id="Path_3" class="st0" d="M2.2,2.5c-0.2,0-0.3-0.1-0.3-0.3v0V0.6H0.3C0.1,0.6,0,0.4,0,0.3C0,0.1,0.1,0,0.3,0h2.2v2.2
				C2.5,2.4,2.4,2.5,2.2,2.5z"/>
		</g>
	</g>
</g>
</svg>
