<svg xmlns="http://www.w3.org/2000/svg" width="121" height="16.27" viewBox="0 0 121 16.27">
  <g id="delete-button" transform="translate(-46.155 1)">
    <g id="Group_27" data-name="Group 27" transform="translate(46.155)">
      <path id="Path_24" data-name="Path 24" d="M57.568,1.829H55.009a2.249,2.249,0,0,0-4.419,0H48.032a1.817,1.817,0,0,0-1.877,1.745v.09a1.754,1.754,0,0,0,1.187,1.621v8.241a1.817,1.817,0,0,0,1.877,1.745h7.162a1.817,1.817,0,0,0,1.877-1.745V5.284a1.754,1.754,0,0,0,1.187-1.621v-.09A1.817,1.817,0,0,0,57.568,1.829ZM52.8.827a1.315,1.315,0,0,1,1.31,1H51.491A1.315,1.315,0,0,1,52.8.827Zm4.568,12.7a.955.955,0,0,1-.987.917H49.219a.955.955,0,0,1-.987-.917V5.408h9.136Zm1.187-9.862a.955.955,0,0,1-.987.917H48.032a.955.955,0,0,1-.987-.917v-.09a.955.955,0,0,1,.987-.917h9.535a.955.955,0,0,1,.987.917v.09Z" transform="translate(-46.155)"/>
      <path id="Path_25" data-name="Path 25" d="M158.526,255.547a.451.451,0,0,0,.451-.451v-5.075a.451.451,0,1,0-.9,0V255.1A.451.451,0,0,0,158.526,255.547Z" transform="translate(-154.266 -242.331)"/>
      <path id="Path_26" data-name="Path 26" d="M228.6,255.547a.451.451,0,0,0,.451-.451v-5.075a.451.451,0,1,0-.9,0V255.1A.451.451,0,0,0,228.6,255.547Z" transform="translate(-221.951 -242.331)"/>
      <path id="Path_27" data-name="Path 27" d="M298.665,255.547a.451.451,0,0,0,.451-.451v-5.075a.451.451,0,1,0-.9,0V255.1A.451.451,0,0,0,298.665,255.547Z" transform="translate(-289.635 -242.331)"/>
    </g>
    <text id="Delete_product" data-name="Delete product" transform="translate(67.155 12)" font-size="13" font-family="Montserrat-Regular, Montserrat"><tspan x="0" y="0">Delete product</tspan></text>
  </g>
</svg>
