<svg id="Layer_1" data-name="Layer 1" xmlns="http://www.w3.org/2000/svg" viewBox="0 0 50.79 32.82"><defs><style>.cls-1{fill:#18b8c4;}</style></defs><title>hideDetail</title><path class="cls-1" d="M165,296.81h0a5.47,5.47,0,0,0,3.87-9.33l-6.15-6.16a1.27,1.27,0,0,1,0-1.82l6.16-6.15A5.47,5.47,0,0,0,165,264h0a5.51,5.51,0,0,0-3.87,1.6l-13.89,13.88a1.27,1.27,0,0,0,0,1.82l13.87,13.9A5.51,5.51,0,0,0,165,296.81Z" transform="translate(-119.71 -264)"/><path class="cls-1" d="M137.83,296.79h0a5.47,5.47,0,0,0,3.87-9.33l-6.15-6.15a1.3,1.3,0,0,1,0-1.83l6.16-6.15a5.46,5.46,0,0,0-3.86-9.33h0a5.41,5.41,0,0,0-3.86,1.59l-13.9,13.88a1.3,1.3,0,0,0,0,1.83L134,295.19A5.42,5.42,0,0,0,137.83,296.79Z" transform="translate(-119.71 -264)"/></svg>