<?xml version="1.0" encoding="utf-8"?>
<!-- Generator: Adobe Illustrator 23.0.1, SVG Export Plug-In . SVG Version: 6.00 Build 0)  -->
<svg version="1.1" id="Layer_1" xmlns="http://www.w3.org/2000/svg" xmlns:xlink="http://www.w3.org/1999/xlink" x="0px" y="0px"
	 viewBox="0 0 13.3 13.3" style="enable-background:new 0 0 13.3 13.3;" xml:space="preserve">
<style type="text/css">
	.st0{fill:#18B8C4;}
</style>
<g id="gift" transform="translate(0 -0.101)">
	<path id="Path_7" class="st0" d="M13.3,9.6c-0.1-0.4-0.4-0.6-0.7-0.7V3.1H13c0.1,0,0.2-0.1,0.2-0.3V0.4c0-0.1-0.1-0.2-0.2-0.3H3.3
		c-0.1,0-0.2,0.1-0.2,0.3v2.5c0,0.1,0.1,0.2,0.2,0.3h0.4v5H3.5C3,8.1,2.4,8.3,2,8.6V7.4c0-0.1-0.1-0.2-0.2-0.3H0.2
		C0.1,7.1,0,7.2,0,7.4v5.8c0,0.1,0.1,0.2,0.2,0.3h1.5c0.1,0,0.2-0.1,0.2-0.3v-1.3c0.4,0.3,1,0.5,1.5,0.5h3.6c0.3,0,0.5,0,0.7-0.1
		l4.8-1.5C13.1,10.6,13.4,10.1,13.3,9.6L13.3,9.6z M3.5,0.6h9.2v2H3.5V0.6z M4.2,3.1h7.9v5.8L9.5,9.7C9.5,9.4,9.2,9.2,9,9.1L6,8.2
		c-0.2,0-0.3-0.1-0.5-0.1H4.2V3.1z M1.5,12.9H0.4V7.6h1.1V12.9z M12.5,10.3l-4.8,1.5c-0.2,0.1-0.4,0.1-0.6,0.1H3.5
		c-0.5,0-1.1-0.2-1.5-0.6L2,11.3v-2l0.1-0.1C2.5,8.8,3,8.6,3.5,8.6h2c0.1,0,0.3,0,0.4,0.1l3,0.9C9,9.7,9.2,9.8,9.2,10c0,0,0,0,0,0
		c0,0,0,0,0,0c0,0,0,0.1,0,0.1c0,0.2-0.2,0.4-0.4,0.4c0,0-0.1,0-0.1,0L6.8,10c-0.1,0-0.2,0-0.2,0.1c-0.1,0.1-0.1,0.2-0.1,0.2
		c0,0.1,0.1,0.2,0.2,0.2L8.5,11c0.1,0,0.2,0,0.2,0c0.4,0,0.8-0.3,0.8-0.7c0-0.1,0-0.1,0-0.2l2.7-0.8c0,0,0,0,0.1,0
		c0.2,0,0.4,0.1,0.5,0.4c0,0,0,0.1,0,0.1C12.9,10.1,12.7,10.3,12.5,10.3L12.5,10.3z"/>
	<path id="Path_8" class="st0" d="M7,4.1h2.3c0.1,0,0.2-0.1,0.2-0.2S9.4,3.6,9.3,3.6H7c-0.1,0-0.2,0.1-0.2,0.2S6.9,4.1,7,4.1L7,4.1z
		"/>
</g>
</svg>
