<?xml version="1.0" encoding="utf-8"?>
<!-- Generator: Adobe Illustrator 23.0.1, SVG Export Plug-In . SVG Version: 6.00 Build 0)  -->
<svg version="1.1" id="Layer_1" xmlns="http://www.w3.org/2000/svg" xmlns:xlink="http://www.w3.org/1999/xlink" x="0px" y="0px"
	 viewBox="0 0 13.3 13.3" style="enable-background:new 0 0 13.3 13.3;" xml:space="preserve">
<style type="text/css">
	.st0{fill:#18B8C4;}
</style>
<g id="iconfinder_941-32_4619651" transform="translate(-45.495 -71.472)">
	<path id="Path_11" class="st0" d="M50.5,82c-0.8,0-1.4,0.6-1.4,1.4s0.6,1.4,1.4,1.4s1.4-0.6,1.4-1.4l0,0C51.9,82.6,51.3,82,50.5,82
		z M50.5,84.3c-0.5,0-0.9-0.4-0.9-0.9s0.4-0.9,0.9-0.9c0.5,0,0.9,0.4,0.9,0.9l0,0C51.4,83.9,51,84.3,50.5,84.3L50.5,84.3z"/>
	<path id="Path_12" class="st0" d="M56.1,82c-0.8,0-1.4,0.6-1.4,1.4s0.6,1.4,1.4,1.4c0.8,0,1.4-0.6,1.4-1.4l0,0
		C57.5,82.6,56.9,82,56.1,82z M56.1,84.3c-0.5,0-0.9-0.4-0.9-0.9s0.4-0.9,0.9-0.9s0.9,0.4,0.9,0.9l0,0
		C57.1,83.9,56.7,84.3,56.1,84.3L56.1,84.3z"/>
	<path id="Path_13" class="st0" d="M58.8,72.5c0-0.1-0.1-0.1-0.2-0.1H48l-2.2-0.9c-0.1,0-0.2,0-0.3,0.1c0,0.1,0,0.2,0.1,0.3l2.2,0.9
		l2.6,5.6c0,0.1,0.1,0.1,0.2,0.1h5.3c0.1,0,0.2-0.1,0.2-0.1l2.7-5.7C58.8,72.6,58.8,72.6,58.8,72.5z M55.8,78.1h-5l-2.4-5.2h9.9
		L55.8,78.1z"/>
</g>
</svg>
