<svg height="480pt" viewBox="-72 0 480 480" width="480pt" xmlns="http://www.w3.org/2000/svg" xmlns:xlink="http://www.w3.org/1999/xlink"><linearGradient id="a"><stop offset="0" stop-color="#fff200"/><stop offset="1" stop-color="#cd118c"/></linearGradient><linearGradient id="b" gradientUnits="userSpaceOnUse" x1="-129.04" x2="326.96" xlink:href="#a" y1="76.44" y2="572.44"/><linearGradient id="c" gradientUnits="userSpaceOnUse" x1="-24.992" x2="431.008" xlink:href="#a" y1="-19.216" y2="476.784"/><linearGradient id="d" gradientUnits="userSpaceOnUse" x1="-49.552" x2="406.448" xlink:href="#a" y1="3.36" y2="499.36"/><linearGradient id="e" gradientUnits="userSpaceOnUse" x1="46.112" x2="502.112" xlink:href="#a" y1="-84.584" y2="411.416"/><linearGradient id="f" gradientUnits="userSpaceOnUse" x1="-81.44" x2="374.56" xlink:href="#a" y1="32.68" y2="528.68"/><path d="m103.472656 193.128906c-.40625-.929687-.921875-1.804687-1.535156-2.609375-.34375-.363281-.722656-.691406-1.128906-.984375-.390625-.328125-.8125-.617187-1.265625-.855468-.476563-.222657-.980469-.390626-1.496094-.503907-.335937-.140625-.683594-.257812-1.039063-.351562-15.808593-1.882813-31.464843-4.902344-46.839843-9.039063-.359375-.054687-.722657-.082031-1.089844-.089844-.351563-.097656-.714844-.167968-1.078125-.214843-.175781 0-.320312.085937-.488281.09375-.542969.054687-1.078125.160156-1.601563.320312-.5.113281-.992187.273438-1.460937.480469-.410157.226562-.796875.496094-1.152344.800781-.457031.304688-.878906.660157-1.257813 1.054688-.300781.363281-.566406.753906-.800781 1.160156-.320312.464844-.585937.964844-.796875 1.488281-.058594.160156-.183594.28125-.234375.449219-.054687.367187-.082031.738281-.078125 1.113281-.070312.339844-.113281.6875-.128906 1.039063v208c0 .175781.089844.320312.097656.488281.054688.542969.164063 1.078125.328125 1.597656.109375.472656.261719.933594.453125 1.378906.238282.445313.523438.867188.847656 1.253907.292969.421875.621094.8125.984376 1.167969.375.304687.777343.570312 1.199218.800781.46875.308593.964844.566406 1.488282.761719.160156.054687.273437.183593.433593.222656 16.136719 4.351562 32.566407 7.53125 49.160157 9.519531.332031.054687.671874.082031 1.007812.089844 1.019531-.007813 2.027344-.210938 2.96875-.601563.320312-.164062.632812-.351562.925781-.558594.554688-.28125 1.070313-.628906 1.539063-1.035156 1.074218-.949218 1.820312-2.222656 2.117187-3.628906.160157-.378906.285157-.769531.378907-1.167969 0-.175781-.050782-.335937 0-.511719.046874-.179687.09375-.320312.09375-.496093v-208c-.042969-.359375-.113282-.710938-.214844-1.058594-.058594-.535156-.171875-1.0625-.335938-1.574219zm-47.472656 3.671875c9.734375 2.304688 20.585938 4.277344 32 5.917969v191.839844c-11.617188-1.726563-22.398438-3.847656-32-6.269532zm0 0" fill="url(#b)"/><path d="m295.703125 184.3125c-.046875-.167969-.175781-.289062-.230469-.449219-.199218-.515625-.449218-1.007812-.753906-1.472656-.230469-.417969-.496094-.816406-.796875-1.191406-.367187-.378907-.773437-.71875-1.210937-1.015625-.371094-.304688-.773438-.570313-1.199219-.800782-.460938-.207031-.945313-.371093-1.441407-.480468-.519531-.160156-1.054687-.265625-1.597656-.316406-.167968 0-.3125-.097657-.488281-.097657-.363281.046875-.726563.121094-1.082031.214844-.363282.007813-.726563.035156-1.085938.089844-15.375 4.136719-31.03125 7.15625-46.839844 9.039062-.355468.09375-.703124.210938-1.039062.351563-.515625.117187-1.015625.285156-1.496094.503906-.449218.242188-.875.527344-1.265625.855469-.40625.292969-.785156.621093-1.128906.984375-.613281.804687-1.128906 1.679687-1.535156 2.609375-.160157.519531-.261719 1.054687-.3125 1.597656-.09375.335937-.160157.679687-.199219 1.027344v208c0 .175781.089844.316406.105469.496093.015625.175782-.066407.335938 0 .511719.09375.398438.21875.792969.375 1.175781.097656.425782.230469.84375.398437 1.246094.269532.511719.59375.992188.96875 1.433594.222656.332031.476563.644531.753906.933594.484376.421875 1.023438.777344 1.597657 1.066406.289062.195312.585937.375.898437.535156.917969.382813 1.90625.585938 2.902344.601563.335938 0 .675781-.019531 1.007812-.066407 16.59375-1.988281 33.023438-5.167968 49.160157-9.519531.160156 0 .273437-.167969.433593-.222656.523438-.195313 1.019532-.453125 1.488282-.761719.421875-.230468.824218-.496094 1.199218-.800781.363282-.355469.691407-.746094.984376-1.167969.324218-.386718.609374-.808594.847656-1.253906.191406-.445312.34375-.90625.453125-1.375.164062-.523438.273437-1.058594.328125-1.601562 0-.175782.097656-.3125.097656-.488282v-208c-.042969-.355468-.117188-.710937-.214844-1.054687 0-.382813-.027344-.761719-.082031-1.136719zm-47.703125 18.390625c11.414062-1.640625 22.265625-3.613281 32-5.917969v191.488282c-9.601562 2.398437-20.382812 4.542968-32 6.269531zm0 0" fill="url(#c)"/><path d="m168 0c-80.910156 0-168 15.015625-168 48v384c0 32.984375 87.089844 48 168 48s168-15.015625 168-48v-384c0-32.984375-87.089844-48-168-48zm152 96c0 10.855469-53.648438 32-152 32s-152-21.144531-152-32v-25.910156c28.800781 17.664062 92.078125 25.910156 152 25.910156s123.199219-8.246094 152-25.910156zm-152-80c98.351562 0 152 21.144531 152 32s-53.648438 32-152 32-152-21.144531-152-32 53.648438-32 152-32zm0 448c-98.351562 0-152-21.144531-152-32v-313.910156c28.800781 17.664062 92.078125 25.910156 152 25.910156s123.199219-8.246094 152-25.910156v313.910156c0 10.855469-53.648438 32-152 32zm0 0" fill="url(#d)"/><path d="m104 56h22.953125c.34375.097656.691406.171875 1.046875.214844 2.101562.058594 4.136719-.738282 5.640625-2.203125 1.507813-1.464844 2.359375-3.476563 2.359375-5.578125 1.007812-2.402344 12.128906-8.433594 32-8.433594s30.992188 6.03125 32 8c0 4.417969 3.582031 8 8 8h24c4.417969 0 8-3.582031 8-8s-3.582031-8-8-8h-18.273438c-6.621093-10.929688-26.75-16-45.726562-16s-39.105469 5.070312-45.726562 16h-18.273438c-4.417969 0-8 3.582031-8 8s3.582031 8 8 8zm0 0" fill="url(#e)"/><path d="m200 192h-64c-4.417969 0-8 3.582031-8 8v208c0 4.417969 3.582031 8 8 8h64c4.417969 0 8-3.582031 8-8v-208c0-4.417969-3.582031-8-8-8zm-8 208h-48v-192h48zm0 0" fill="url(#f)"/></svg>