<svg id="flat" height="512" viewBox="0 0 512 512" width="512" xmlns="http://www.w3.org/2000/svg"><path d="m168 232-8 24h-88l-15.68621-54.34436-.31379-2.21858v-60.86674a32 32 0 0 1 16.12355-27.78378l39.87645-22.78654 32 8 29.65685 29.65685a8 8 0 0 1 2.34315 5.65686v60.68629z" fill="#3b9298"/><path d="m104 56h48a0 0 0 0 1 0 0v24a24 24 0 0 1 -24 24 24 24 0 0 1 -24-24v-24a0 0 0 0 1 0 0z" fill="#f5c99d"/><path d="m112 24h32a8 8 0 0 1 8 8v24a0 0 0 0 1 0 0h-48a0 0 0 0 1 0 0v-24a8 8 0 0 1 8-8z" fill="#eebf3e"/><path d="m216 224-54.646-39.03288a8 8 0 0 1 -2.21-2.3939l-15.91072-26.51786a114.20123 114.20123 0 0 0 -17.17438-21.99646 48 48 0 0 0 -33.94115-14.0589h-20.11775a16 16 0 0 0 -16 16v28a8 8 0 0 0 3.2 6.4l59.85 44.88748a7.99964 7.99964 0 0 0 2.066 1.11835l81.152 29.50979z" fill="#4fbfcb"/><path d="m472 464h-188.46875a23.96872 23.96872 0 0 1 -22.76563-16.41016l-.30468-.92578a23.82224 23.82224 0 0 1 10.42968-28.125l28.99219-17.39844 8.23438 13.71876-28.99219 17.39843a8.05332 8.05332 0 0 0 -3.47656 9.38281l.30468.92969a7.98477 7.98477 0 0 0 7.57813 5.42969h188.46875z" fill="#3b9298"/><path d="m265.14062 284.11719-19.33593-32.23047a8.054 8.054 0 0 0 -6.86719-3.88672h-6.9375v-16h6.9375a24.14573 24.14573 0 0 1 20.58594 11.64844l19.33594 32.23437z" fill="#3b9298"/><path d="m308.06882 416h135.86236a16 16 0 0 0 15.38438-11.60446l28.06882-98.24088a15.9999 15.9999 0 0 0 .61562-4.39554v-13.75912a16 16 0 0 0 -16-16h-192a16 16 0 0 0 -16 16v13.75912a15.9999 15.9999 0 0 0 .61562 4.39554l28.06882 98.24088a16 16 0 0 0 15.38438 11.60446z" fill="#4fbfcb"/><circle cx="312" cy="472" fill="#eebf3e" r="16"/><circle cx="432" cy="472" fill="#eebf3e" r="16"/><path d="m376 272v-56a8 8 0 0 1 8-8h80a8 8 0 0 1 8 8v56" fill="#cc4c4d"/><path d="m448 232h-16v-40a8 8 0 0 0 -16 0v40h-16v-40a24 24 0 0 1 48 0z" fill="#9b413a"/><path d="m280 272v-80a8 8 0 0 1 8-8h80a8 8 0 0 1 8 8v80z" fill="#eebf3e"/><path d="m352 208h-16v-40a8 8 0 0 0 -16 0v40h-16v-40a24 24 0 0 1 48 0z" fill="#c69324"/><path d="m72 383.0889a8 8 0 0 1 -.20487 1.79887l-21.53385 93.31335a8 8 0 0 0 7.79513 9.79888h5.81408a12.62514 12.62514 0 0 0 11.49351-7.40083l36.25489-79.76076a8.00019 8.00019 0 0 0 .56172-1.74149l7.81939-39.09692v-104h-48z" fill="#b0a9a5"/><path d="m72 256v26.3875a16 16 0 0 0 3.5061 9.99512l28.10432 35.1304a7.99982 7.99982 0 0 1 .699 1.02845l30.955 54.17126a7.99981 7.99981 0 0 1 .961 2.75265l14.73094 95.75108a8 8 0 0 0 7.90699 6.78354h9.6877a8 8 0 0 0 7.97967-7.43l7.36475-103.10653a8.00023 8.00023 0 0 0 -.31706-2.86876l-23.241-77.47006a7.99989 7.99989 0 0 1 -.33741-2.2988v-38.82585z" fill="#efe8e0"/><path d="m148.124 226.227 54.144 19.689 13.732-21.916-43.892-31.352z" fill="#f5c99d"/><path d="m216 224h8a8 8 0 0 1 8 8v16a8 8 0 0 1 -8 8h-8a16 16 0 0 1 -16-16 16 16 0 0 1 16-16z" fill="#eebf3e"/></svg>