<svg xmlns="http://www.w3.org/2000/svg" viewBox="0 0 3000 2000"><defs><style>.cls-1{isolation:isolate;}.cls-2{fill:none;}.cls-3{mix-blend-mode:multiply;}.cls-4{fill:#ffc40c;}.cls-5{fill:#231f20;}</style></defs><title>icon</title><g class="cls-1"><g id="Isolation_Mode" data-name="Isolation Mode"><rect class="cls-2" width="3000" height="2000"/><g class="cls-3"><path class="cls-4" d="M1606.86,2139.08,2017.31,2760a91.65,91.65,0,0,0,147.21-109.23l-410.45-620.91a91.65,91.65,0,0,0-147.21,109.23Z" transform="translate(-547.33 -1457.33)"/></g><g class="cls-3"><path class="cls-4" d="M1889.14,2139.08,2299.59,2760a91.65,91.65,0,0,0,147.21-109.23l-410.45-620.91a91.65,91.65,0,0,0-147.21,109.23Z" transform="translate(-547.33 -1457.33)"/></g><g class="cls-3"><path class="cls-4" d="M2171.42,2139.08,2581.87,2760a91.65,91.65,0,0,0,147.21-109.23l-410.45-620.91a91.65,91.65,0,0,0-147.21,109.23Z" transform="translate(-547.33 -1457.33)"/></g><g class="cls-3"><path class="cls-4" d="M2453.7,2139.08,2864.15,2760a91.65,91.65,0,0,0,147.21-109.23l-410.45-620.91a91.65,91.65,0,0,0-147.21,109.23Z" transform="translate(-547.33 -1457.33)"/></g><g class="cls-3"><path class="cls-4" d="M2728.23,2139.08l261.29,399.25a91.65,91.65,0,1,0,147.2-109.23l-261.28-399.25a91.65,91.65,0,0,0-147.21,109.23Z" transform="translate(-547.33 -1457.33)"/></g><g class="cls-3"><path class="cls-4" d="M2997.19,2134.08l99.31,142.34a91.65,91.65,0,1,0,147.2-109.23l-99.31-142.34a91.65,91.65,0,0,0-147.2,109.23Z" transform="translate(-547.33 -1457.33)"/></g><path class="cls-5" d="M1604.31,1840.81l-109.51-128a91.48,91.48,0,0,0-72.84-31.2c-1.4-.06-2.8-.1-4.22-.1H834.17a91.65,91.65,0,0,0,0,183.3h549.47l82.72,96.65a91.65,91.65,0,1,0,138-120.7Z" transform="translate(-547.33 -1457.33)"/><circle class="cls-5" cx="2286.69" cy="2976.54" r="146.67" transform="translate(-1982.31 1031.41) rotate(-45)"/><circle class="cls-5" cx="2792.24" cy="2976.54" r="146.67" transform="translate(-1834.24 1388.88) rotate(-45)"/></g></g></svg>