<?xml version="1.0" encoding="iso-8859-1"?>
<!-- Generator: Adobe Illustrator 21.0.0, SVG Export Plug-In . SVG Version: 6.00 Build 0)  -->
<svg xmlns="http://www.w3.org/2000/svg" xmlns:xlink="http://www.w3.org/1999/xlink" version="1.1" id="Capa_1" x="0px" y="0px" viewBox="0 0 60 60" style="enable-background:new 0 0 60 60;" xml:space="preserve" width="512" height="512">
<g>
	<g>
		<rect x="1" y="47.5" style="fill:#FFC309;" width="16" height="11"/>
	</g>
	<g>
		<rect x="22" y="38.5" style="fill:#FFC309;" width="16" height="20"/>
	</g>
	<g>
		<rect x="43" y="28.5" style="fill:#FFC309;" width="16" height="30"/>
	</g>
	<g>
		<path style="fill:#911E3F;" d="M17,59.5H1c-0.552,0-1-0.448-1-1v-5c0-0.552,0.448-1,1-1h16c0.552,0,1,0.448,1,1v5    C18,59.052,17.552,59.5,17,59.5z M2,57.5h14v-3H2V57.5z"/>
	</g>
	<g>
		<rect x="12" y="53.5" style="fill:#911E3F;" width="2" height="5"/>
	</g>
	<g>
		<rect x="8" y="53.5" style="fill:#911E3F;" width="2" height="5"/>
	</g>
	<g>
		<rect x="4" y="53.5" style="fill:#911E3F;" width="2" height="5"/>
	</g>
	<g>
		<path style="fill:#911E3F;" d="M17,54.5H1c-0.552,0-1-0.448-1-1v-5c0-0.552,0.448-1,1-1h16c0.552,0,1,0.448,1,1v5    C18,54.052,17.552,54.5,17,54.5z M2,52.5h14v-3H2V52.5z"/>
	</g>
	<g>
		<rect x="12" y="48.5" style="fill:#911E3F;" width="2" height="5"/>
	</g>
	<g>
		<rect x="8" y="48.5" style="fill:#911E3F;" width="2" height="5"/>
	</g>
	<g>
		<rect x="4" y="48.5" style="fill:#911E3F;" width="2" height="5"/>
	</g>
	<g>
		<path style="fill:#911E3F;" d="M38,54.5H22c-0.552,0-1-0.448-1-1v-5c0-0.552,0.448-1,1-1h16c0.552,0,1,0.448,1,1v5    C39,54.052,38.552,54.5,38,54.5z M23,52.5h14v-3H23V52.5z"/>
	</g>
	<g>
		<rect x="33" y="48.5" style="fill:#911E3F;" width="2" height="5"/>
	</g>
	<g>
		<rect x="29" y="48.5" style="fill:#911E3F;" width="2" height="5"/>
	</g>
	<g>
		<rect x="25" y="48.5" style="fill:#911E3F;" width="2" height="5"/>
	</g>
	<g>
		<path style="fill:#911E3F;" d="M38,49.5H22c-0.552,0-1-0.448-1-1v-5c0-0.552,0.448-1,1-1h16c0.552,0,1,0.448,1,1v5    C39,49.052,38.552,49.5,38,49.5z M23,47.5h14v-3H23V47.5z"/>
	</g>
	<g>
		<rect x="33" y="43.5" style="fill:#911E3F;" width="2" height="5"/>
	</g>
	<g>
		<rect x="29" y="43.5" style="fill:#911E3F;" width="2" height="5"/>
	</g>
	<g>
		<rect x="25" y="43.5" style="fill:#911E3F;" width="2" height="5"/>
	</g>
	<g>
		<path style="fill:#911E3F;" d="M38,44.5H22c-0.552,0-1-0.448-1-1v-5c0-0.552,0.448-1,1-1h16c0.552,0,1,0.448,1,1v5    C39,44.052,38.552,44.5,38,44.5z M23,42.5h14v-3H23V42.5z"/>
	</g>
	<g>
		<rect x="33" y="38.5" style="fill:#911E3F;" width="2" height="5"/>
	</g>
	<g>
		<rect x="29" y="38.5" style="fill:#911E3F;" width="2" height="5"/>
	</g>
	<g>
		<rect x="25" y="38.5" style="fill:#911E3F;" width="2" height="5"/>
	</g>
	<g>
		<path style="fill:#911E3F;" d="M38,59.5H22c-0.552,0-1-0.448-1-1v-5c0-0.552,0.448-1,1-1h16c0.552,0,1,0.448,1,1v5    C39,59.052,38.552,59.5,38,59.5z M23,57.5h14v-3H23V57.5z"/>
	</g>
	<g>
		<rect x="33" y="53.5" style="fill:#911E3F;" width="2" height="5"/>
	</g>
	<g>
		<rect x="29" y="53.5" style="fill:#911E3F;" width="2" height="5"/>
	</g>
	<g>
		<rect x="25" y="53.5" style="fill:#911E3F;" width="2" height="5"/>
	</g>
	<g>
		<path style="fill:#911E3F;" d="M59,49.5H43c-0.552,0-1-0.448-1-1v-5c0-0.552,0.448-1,1-1h16c0.552,0,1,0.448,1,1v5    C60,49.052,59.552,49.5,59,49.5z M44,47.5h14v-3H44V47.5z"/>
	</g>
	<g>
		<rect x="54" y="43.5" style="fill:#911E3F;" width="2" height="5"/>
	</g>
	<g>
		<rect x="50" y="43.5" style="fill:#911E3F;" width="2" height="5"/>
	</g>
	<g>
		<rect x="46" y="43.5" style="fill:#911E3F;" width="2" height="5"/>
	</g>
	<g>
		<path style="fill:#911E3F;" d="M59,44.5H43c-0.552,0-1-0.448-1-1v-5c0-0.552,0.448-1,1-1h16c0.552,0,1,0.448,1,1v5    C60,44.052,59.552,44.5,59,44.5z M44,42.5h14v-3H44V42.5z"/>
	</g>
	<g>
		<rect x="54" y="38.5" style="fill:#911E3F;" width="2" height="5"/>
	</g>
	<g>
		<rect x="50" y="38.5" style="fill:#911E3F;" width="2" height="5"/>
	</g>
	<g>
		<rect x="46" y="38.5" style="fill:#911E3F;" width="2" height="5"/>
	</g>
	<g>
		<path style="fill:#911E3F;" d="M59,39.5H43c-0.552,0-1-0.448-1-1v-5c0-0.552,0.448-1,1-1h16c0.552,0,1,0.448,1,1v5    C60,39.052,59.552,39.5,59,39.5z M44,37.5h14v-3H44V37.5z"/>
	</g>
	<g>
		<rect x="54" y="33.5" style="fill:#911E3F;" width="2" height="5"/>
	</g>
	<g>
		<rect x="50" y="33.5" style="fill:#911E3F;" width="2" height="5"/>
	</g>
	<g>
		<rect x="46" y="33.5" style="fill:#911E3F;" width="2" height="5"/>
	</g>
	<g>
		<path style="fill:#911E3F;" d="M59,34.5H43c-0.552,0-1-0.448-1-1v-5c0-0.552,0.448-1,1-1h16c0.552,0,1,0.448,1,1v5    C60,34.052,59.552,34.5,59,34.5z M44,32.5h14v-3H44V32.5z"/>
	</g>
	<g>
		<rect x="54" y="28.5" style="fill:#911E3F;" width="2" height="5"/>
	</g>
	<g>
		<rect x="50" y="28.5" style="fill:#911E3F;" width="2" height="5"/>
	</g>
	<g>
		<rect x="46" y="28.5" style="fill:#911E3F;" width="2" height="5"/>
	</g>
	<g>
		<path style="fill:#911E3F;" d="M59,54.5H43c-0.552,0-1-0.448-1-1v-5c0-0.552,0.448-1,1-1h16c0.552,0,1,0.448,1,1v5    C60,54.052,59.552,54.5,59,54.5z M44,52.5h14v-3H44V52.5z"/>
	</g>
	<g>
		<rect x="54" y="48.5" style="fill:#911E3F;" width="2" height="5"/>
	</g>
	<g>
		<rect x="50" y="48.5" style="fill:#911E3F;" width="2" height="5"/>
	</g>
	<g>
		<rect x="46" y="48.5" style="fill:#911E3F;" width="2" height="5"/>
	</g>
	<g>
		<path style="fill:#911E3F;" d="M59,59.5H43c-0.552,0-1-0.448-1-1v-5c0-0.552,0.448-1,1-1h16c0.552,0,1,0.448,1,1v5    C60,59.052,59.552,59.5,59,59.5z M44,57.5h14v-3H44V57.5z"/>
	</g>
	<g>
		<rect x="54" y="53.5" style="fill:#911E3F;" width="2" height="5"/>
	</g>
	<g>
		<rect x="50" y="53.5" style="fill:#911E3F;" width="2" height="5"/>
	</g>
	<g>
		<rect x="46" y="53.5" style="fill:#911E3F;" width="2" height="5"/>
	</g>
	<g>
		<path style="fill:#2B3670;" d="M43.12,14.794l-1.414-1.414L52.586,2.5H50v-2h5c0.552,0,1,0.448,1,1    c0,0.265-0.105,0.519-0.293,0.707L43.12,14.794z"/>
	</g>
	<g>
		
			<rect x="28.515" y="20.499" transform="matrix(0.7071 -0.7071 0.7071 0.7071 -4.9507 31.0462)" style="fill:#2B3670;" width="12.971" height="2"/>
	</g>
	<g>
		
			<rect x="23" y="17.428" transform="matrix(0.7072 -0.7071 0.7071 0.7072 -8.8804 23.5584)" style="fill:#2B3670;" width="2" height="10.143"/>
	</g>
	<g>
		
			<rect x="8.927" y="21.501" transform="matrix(0.7071 -0.7071 0.7071 0.7071 -11.8102 16.4896)" style="fill:#2B3670;" width="10.145" height="2"/>
	</g>
	<g>
		<rect x="54" y="1.5" style="fill:#2B3670;" width="2" height="5"/>
	</g>
	<g>
		<path style="fill:#2B3670;" d="M9,30.5c-1.657,0-3-1.343-3-3s1.343-3,3-3s3,1.343,3,3S10.657,30.5,9,30.5L9,30.5z M9,26.5    c-0.552,0-1,0.448-1,1s0.448,1,1,1s1-0.448,1-1S9.552,26.5,9,26.5z"/>
	</g>
	<g>
		<path style="fill:#2B3670;" d="M19,20.5c-1.657,0-3-1.343-3-3s1.343-3,3-3s3,1.343,3,3S20.657,20.5,19,20.5z M19,16.5    c-0.552,0-1,0.448-1,1s0.448,1,1,1s1-0.448,1-1S19.552,16.5,19,16.5z"/>
	</g>
	<g>
		<path style="fill:#2B3670;" d="M41,18.5c-1.657,0-3-1.343-3-3s1.343-3,3-3s3,1.343,3,3S42.657,18.5,41,18.5z M41,14.5    c-0.552,0-1,0.448-1,1s0.448,1,1,1s1-0.448,1-1S41.552,14.5,41,14.5z"/>
	</g>
	<g>
		<path style="fill:#2B3670;" d="M29,30.5c-1.657,0-3-1.343-3-3s1.343-3,3-3c1.657,0,3,1.343,3,3S30.657,30.5,29,30.5L29,30.5z     M29,26.5c-0.552,0-1,0.448-1,1s0.448,1,1,1s1-0.448,1-1S29.552,26.5,29,26.5z"/>
	</g>
</g>















</svg>
