<svg height="512" viewBox="0 0 64 64" width="512" xmlns="http://www.w3.org/2000/svg"><g id="Pencil"><path d="m56.87 7.13a10 10 0 0 0 -14.142 0l14.142 14.142a10 10 0 0 0 0-14.142z" fill="#f1f2f2"/><path d="m44.678 6.322h6v20h-6z" fill="#ff5023" transform="matrix(.707 -.707 .707 .707 2.423 38.494)"/><path d="m48.385 21.272-5.657-5.657-4.243-4.242-30.405 30.405 7.778.707-.707 6.364 6.364-.707.707 7.778 30.405-30.405z" fill="#bddbff"/><path d="m42.728 15.615-26.87 26.87-.707 6.364 6.364-.707 26.87-26.87z" fill="#57a4ff"/><path d="m48.385 21.272-26.87 26.87.707 7.778 30.405-30.405z" fill="#2488ff"/><path d="m11.68 58.653 10.542-2.733-.707-7.778-6.364.707.707-6.364-7.778-.707-2.733 10.542a9 9 0 0 1 6.333 6.333z" fill="#ffeb99"/><path d="m11.68 58.653a9 9 0 0 0 -6.333-6.333l-2.217 8.55z" fill="#58595b"/><g fill="#231f20"><path d="m20.1 39.243a1 1 0 0 1 -.707-1.707l18.385-18.385a1 1 0 0 1 1.414 1.414l-18.384 18.385a1 1 0 0 1 -.708.293z"/><path d="m25.758 44.9a1 1 0 0 1 -.707-1.707l18.385-18.385a1 1 0 0 1 1.414 1.414l-18.385 18.384a.993.993 0 0 1 -.707.294z"/><path d="m57.577 6.423a11.012 11.012 0 0 0 -15.556 0l-34.648 34.648a1 1 0 0 0 -.261.456l-4.95 19.092a1 1 0 0 0 .968 1.251.976.976 0 0 0 .251-.032l19.092-4.95a.991.991 0 0 0 .456-.261l34.648-34.648a11.012 11.012 0 0 0 0-15.556zm-53.053 53.053 1.523-5.876a8.023 8.023 0 0 1 4.35 4.35zm2.025-7.81 2.286-8.815 5.916.538-.595 5.35a1 1 0 0 0 .287.817.993.993 0 0 0 .818.287l5.35-.594.538 5.917-8.814 2.285a10.009 10.009 0 0 0 -5.786-5.785zm16.475 2.034-.513-5.652a1 1 0 0 0 -1.107-.9l-5.122.569.57-5.121a1 1 0 0 0 -.9-1.107l-5.652-.513 28.185-28.189 6.364 6.364 6.364 6.364zm29.6-29.6-6.364-6.364-6.36-6.363 2.829-2.829 6.364 6.364 6.364 6.364zm4.2-4.282-6.325-6.325-6.318-6.324a9 9 0 0 1 12.65 12.65z"/></g></g></svg>