<?xml version="1.0" encoding="utf-8"?>
<!-- Generator: Adobe Illustrator 23.0.1, SVG Export Plug-In . SVG Version: 6.00 Build 0)  -->
<svg version="1.1" id="Layer_1" xmlns="http://www.w3.org/2000/svg" xmlns:xlink="http://www.w3.org/1999/xlink" x="0px" y="0px"
	 viewBox="0 0 13.3 13.3" style="enable-background:new 0 0 13.3 13.3;" xml:space="preserve">
<style type="text/css">
	.st0{fill:#18B8C4;}
</style>
<g id="diagram" transform="translate(-0.003 0.001)">
	<g id="Group_6" transform="translate(1.003 0.999)">
		<g id="Group_5" transform="translate(0 0)">
			<rect id="Rectangle_1" x="0" y="0" class="st0" width="3" height="1"/>
		</g>
	</g>
	<g id="Group_8" transform="translate(1.003 2.048)">
		<g id="Group_7" transform="translate(0 0)">
			<rect id="Rectangle_2" x="0" y="0" class="st0" width="3" height="1"/>
		</g>
	</g>
	<g id="Group_10" transform="translate(1.003 3.066)">
		<g id="Group_9" transform="translate(0 0)">
			<polygon id="Rectangle_3" class="st0" points="0,0 2,0 2,0 			"/>
		</g>
	</g>
	<g id="Group_12" transform="translate(1.003 4.089)">
		<g id="Group_11" transform="translate(0 0)">
			<polygon id="Rectangle_4" class="st0" points="0,0 2,0 2,0 			"/>
		</g>
	</g>
	<g id="Group_14" transform="translate(0.003 13.289)">
		<g id="Group_13" transform="translate(0 0)">
			<polygon id="Rectangle_5" class="st0" points="0,0 13.3,0 13.3,0 			"/>
		</g>
	</g>
	<g id="Group_16" transform="translate(0.856 -0.001)">
		<g id="Group_15">
			<path id="Path_14" class="st0" d="M12.1,1.9l-0.9-1.7C11.1,0,11,0,10.9,0l0,0L9.1,0.9C9,0.9,8.9,1.1,9,1.2c0,0,0,0,0,0
				C9,1.3,9.2,1.3,9.3,1.3l1.3-0.6l-0.4,1C8.6,6,4.6,9,0,9.4l0,0.4c4.8-0.4,8.9-3.5,10.6-8l0.4-1l0.7,1.3c0.1,0.1,0.2,0.2,0.3,0.1
				C12.1,2.1,12.1,2,12.1,1.9C12.1,1.9,12.1,1.9,12.1,1.9z"/>
		</g>
	</g>
	<g id="Group_18" transform="translate(0.875 10.752)">
		<g id="Group_17">
			<path id="Path_15" class="st0" d="M1.7,0H0.2C0.1,0,0,0.1,0,0.2v1.3c0,0.1,0.1,0.2,0.2,0.2h1.5C1.9,1.7,2,1.6,2,1.5V0.2
				C2,0.1,1.9,0,1.7,0z M1.5,1.3H0.4V0.4h1.1V1.3z"/>
		</g>
	</g>
	<g id="Group_20" transform="translate(3.358 10.098)">
		<g id="Group_19">
			<path id="Path_16" class="st0" d="M1.7,0H0.2C0.1,0,0,0.1,0,0.2v2c0,0.1,0.1,0.2,0.2,0.2h1.5C1.9,2.4,2,2.3,2,2.2v-2
				C2,0.1,1.9,0,1.7,0z M1.5,2H0.4V0.4h1.1V2z"/>
		</g>
	</g>
	<g id="Group_22" transform="translate(5.819 9.008)">
		<g id="Group_21">
			<path id="Path_17" class="st0" d="M1.7,0H0.2C0.1,0,0,0.1,0,0.2v3.1c0,0.1,0.1,0.2,0.2,0.2h1.5C1.9,3.5,2,3.4,2,3.3V0.2
				C2,0.1,1.9,0,1.7,0z M1.5,3.1H0.4V0.4h1.1V3.1z"/>
		</g>
	</g>
	<g id="Group_24" transform="translate(8.28 7.482)">
		<g id="Group_23">
			<path id="Path_18" class="st0" d="M1.7,0H0.2C0.1,0,0,0.1,0,0.2v4.6C0,4.9,0.1,5,0.2,5h1.5C1.9,5,2,4.9,2,4.8V0.2
				C2,0.1,1.9,0,1.7,0z M1.5,4.6H0.4V0.4h1.1V4.6z"/>
		</g>
	</g>
	<g id="Group_26" transform="translate(10.755 4.431)">
		<g id="Group_25">
			<path id="Path_19" class="st0" d="M1.7,0H0.2C0.1,0,0,0.1,0,0.2v7.6C0,8,0.1,8.1,0.2,8.1h1.5C1.9,8.1,2,8,2,7.8V0.2
				C2,0.1,1.9,0,1.7,0z M1.5,7.6H0.4V0.4h1.1V7.6z"/>
		</g>
	</g>
</g>
</svg>
