<svg id="Layer_1" data-name="Layer 1" xmlns="http://www.w3.org/2000/svg" viewBox="0 0 50.78 32.8"><defs><style>.cls-1{fill:#18b8c4;}</style></defs><title>showDetail</title><path class="cls-1" d="M125.19,264h0a5.46,5.46,0,0,0-3.86,9.33l6.15,6.15a1.3,1.3,0,0,1,0,1.83l-6.15,6.16a5.46,5.46,0,0,0,3.86,9.33h0a5.51,5.51,0,0,0,3.87-1.6l13.88-13.89a1.29,1.29,0,0,0,0-1.83L129.06,265.6A5.51,5.51,0,0,0,125.19,264Z" transform="translate(-119.71 -264)"/><path class="cls-1" d="M152.37,264h0a5.47,5.47,0,0,0-3.87,9.33l6.16,6.15a1.3,1.3,0,0,1,0,1.83l-6.16,6.16a5.47,5.47,0,0,0,3.87,9.33h0a5.47,5.47,0,0,0,3.86-1.6l13.89-13.89a1.3,1.3,0,0,0,0-1.83L156.23,265.6A5.47,5.47,0,0,0,152.37,264Z" transform="translate(-119.71 -264)"/></svg>