<svg id="Layer_35" enable-background="new 0 0 64 64" height="512" viewBox="0 0 64 64" width="512" xmlns="http://www.w3.org/2000/svg"><path d="m48 15.09v12.91c0-2.21-1.79-4-4-4 0-3.31-2.69-6-6-6h-9c-3.38 0-6.5-1.12-9-3-.57-.43-1.1-.9-1.6-1.4-.93-.93-1.74-1.97-2.4-3.12-1.27-2.2-2-4.75-2-7.48 0 0 1.12.45 2.3.92 1.78.71 3.68 1.08 5.62 1.08h.07c1.99 0 3.95-.4 5.78-1.19.57-.24 1.17-.5 1.73-.74 1.65-.7 3.42-1.07 5.26-1.07h.15c7.23 0 13.09 5.86 13.09 13.09z" fill="#656d78"/><path d="m20 15v9c-1.1 0-2.1.45-2.83 1.17-.72.73-1.17 1.73-1.17 2.83v-17.52c.66 1.15 1.47 2.19 2.4 3.12.5.5 1.03.97 1.6 1.4z" fill="#656d78"/><path d="m33.31 49.15 5.45 4.77c-.53.72-1.24 1.32-2.08 1.74l-1.4.7z" fill="#aab2bd"/><path d="m25.28 53.97 5.4-4.8-1.96 7.19-1.4-.7c-.82-.41-1.52-.99-2.04-1.69z" fill="#aab2bd"/><path d="m38.76 53.92c.8-1.03 1.24-2.3 1.24-3.63v-5.65l8 3.27v14.09h-32v-14.09l8-3.27v5.65c0 1.36.46 2.65 1.28 3.68.52.7 1.22 1.28 2.04 1.69l1.4.7 3.28 1.64 3.28-1.64 1.4-.7c.84-.42 1.55-1.02 2.08-1.74z" fill="#fcd770"/><path d="m40 44.64v5.65c0 1.33-.44 2.6-1.24 3.63l-5.45-4.77-1.31-1.15 5.02-5.02c.4.45.9.8 1.47 1.04z" fill="#e6e9ed"/><path d="m33.31 49.15 1.97 7.21-3.28 1.64-3.28-1.64 1.96-7.19 1.32-1.17z" fill="#ff826e"/><path d="m32 48-1.32 1.17-5.4 4.8c-.82-1.03-1.28-2.32-1.28-3.68v-5.65l1.51-.62c.57-.24 1.07-.59 1.47-1.04z" fill="#e6e9ed"/><path d="m16 47.91v14.09h-10c0-6.05 3.66-11.5 9.26-13.79z" fill="#aab2bd"/><path d="m58 62h-10v-14.09l.74.3c2.8 1.15 5.12 3.08 6.73 5.49 1.61 2.4 2.53 5.28 2.53 8.3z" fill="#aab2bd"/><g fill="#f0d0b4"><path d="m36 40.31c0 1.01.38 1.95 1.02 2.67l-5.02 5.02-5.02-5.02c.64-.72 1.02-1.66 1.02-2.67v-1.24c1.23.8 2.57 1.45 4 1.93 1.43-.48 2.77-1.13 4-1.93z"/><path d="m44 24c2.21 0 4 1.79 4 4 0 1.1-.45 2.1-1.17 2.83-.73.72-1.73 1.17-2.83 1.17h-1.76c1.14-2.34 1.76-4.94 1.76-7.65z"/><path d="m42.24 32c-1.38 2.86-3.53 5.32-6.24 7.07-1.23.8-2.57 1.45-4 1.93-1.43-.48-2.77-1.13-4-1.93-1.84-1.19-3.42-2.71-4.69-4.46-.59-.82-1.11-1.7-1.55-2.61-1.14-2.34-1.76-4.94-1.76-7.65v-.35-9c2.5 1.88 5.62 3 9 3h9c3.31 0 6 2.69 6 6v.35c0 2.71-.62 5.31-1.76 7.65z"/><path d="m21.76 32h-1.76c-2.21 0-4-1.79-4-4 0-1.1.45-2.1 1.17-2.83.73-.72 1.73-1.17 2.83-1.17v.35c0 2.71.62 5.31 1.76 7.65z"/></g><circle cx="26" cy="23" r="1"/><circle cx="38" cy="23" r="1"/><path d="m36 32h-2c0 1.103-.897 2-2 2s-2-.897-2-2h-2c0 2.206 1.794 4 4 4s4-1.794 4-4z"/><path d="m42.003 13.417 1.818-.834c-2.115-4.607-6.755-7.583-11.821-7.583v2c4.287 0 8.214 2.519 10.003 6.417z"/><path d="m49.123 47.289-10.259-4.198c-1.133-.463-1.864-1.553-1.864-2.777v-.718c2.469-1.706 4.474-3.972 5.857-6.596h1.143c2.757 0 5-2.243 5-5l.001-12.911c.001-3.763-1.466-7.301-4.13-9.962-2.662-2.662-6.201-4.127-9.965-4.127h-.147c-1.967 0-3.87.389-5.656 1.155l-1.729.741c-1.709.732-3.519 1.104-5.455 1.104-1.81 0-3.575-.339-5.247-1.008l-3.672-1.469v1.477c0 2.791.739 5.404 2 7.691v17.309c0 2.757 2.243 5 5 5h1.143c1.383 2.624 3.388 4.89 5.857 6.596v.718c0 1.224-.731 2.313-1.864 2.777l-10.259 4.197c-6 2.455-9.877 8.229-9.877 14.712v1h54v-1c0-6.483-3.877-12.257-9.877-14.711zm-32.123 1.292 6-2.455v4.166c0 2.668 1.482 5.067 3.869 6.261l5.131 2.565 5.131-2.565c2.387-1.194 3.869-3.593 3.869-6.261v-4.166l6 2.455v12.419h-30zm19.236 6.183-.312.156-.773-2.834 2.195 1.921c-.329.295-.7.552-1.11.757zm-3.808-5.061 1.672 6.129-2.1 1.05-2.1-1.05 1.666-6.108.439-.39zm-4.352 5.217-.312-.156c-.391-.195-.742-.44-1.06-.718l2.126-1.89zm10.03-9.978.894.365v4.984c0 .743-.165 1.455-.463 2.1l-5.074-4.441 3.602-3.603c.32.234.663.44 1.041.595zm5.894-13.942h-.241c.703-1.833 1.119-3.794 1.208-5.826 1.179.405 2.033 1.512 2.033 2.826 0 1.654-1.346 3-3 3zm-28.071-26.151c1.909.764 3.925 1.151 6.065 1.151 2.134 0 4.209-.426 6.169-1.267l1.728-.741c1.536-.658 3.173-.992 4.868-.992h.147c3.229 0 6.267 1.258 8.552 3.541 2.285 2.284 3.543 5.319 3.543 8.548l-.001 8.937c-.601-.455-1.297-.785-2.066-.931-.446-3.433-3.382-6.095-6.934-6.095h-9c-7.21 0-13.164-5.478-13.919-12.49zm3.071 10.632v7.62c-.743.152-1.416.482-2 .924v-10.488c.615.7 1.273 1.361 2 1.944zm1 15.519c-1.654 0-3-1.346-3-3 0-1.311.851-2.417 2.033-2.824.09 2.031.505 3.991 1.208 5.824zm1-6.649v-7.499c2.354 1.366 5.088 2.148 8 2.148h9c2.757 0 5 2.243 5 5v.351c0 7.023-4.406 13.247-11 15.591-6.594-2.344-11-8.568-11-15.591zm10.684 17.598.316.105.316-.105c.947-.316 1.855-.702 2.719-1.153.072.748.306 1.452.678 2.076l-3.713 3.714-3.714-3.714c.372-.624.606-1.328.678-2.076.864.45 1.773.837 2.72 1.153zm-5.79 2.993c.378-.155.721-.361 1.041-.593l3.608 3.608-5.051 4.49c-.315-.66-.492-1.39-.492-2.155v-4.984zm-10.894 4.483v11.575h-7.965c.357-5.025 3.386-9.433 7.965-11.575zm34 11.575v-11.574c4.579 2.141 7.608 6.55 7.965 11.574z"/></svg>