<svg xmlns="http://www.w3.org/2000/svg" viewBox="0 0 13 13"><defs><style>.cls-1{fill:#18b8c4;}</style></defs><title>Customer</title><g id="Layer_2" data-name="Layer 2"><g id="Layer_1-2" data-name="Layer 1"><path class="cls-1" d="M6.5,6.5a3.5,3.5,0,0,0,3.71-3.25A3.5,3.5,0,0,0,6.5,0,3.5,3.5,0,0,0,2.79,3.25,3.5,3.5,0,0,0,6.5,6.5Zm2.78.83L7.89,12.19,7,8.73l.93-1.42H5.11L6,8.73l-.93,3.46L3.72,7.33A3.64,3.64,0,0,0,0,10.72v1.06A1.31,1.31,0,0,0,1.39,13H11.61A1.31,1.31,0,0,0,13,11.78V10.72A3.64,3.64,0,0,0,9.28,7.33Z"/></g></g></svg>