<?xml version="1.0" encoding="utf-8"?>
<!-- Generator: Adobe Illustrator 23.0.1, SVG Export Plug-In . SVG Version: 6.00 Build 0)  -->
<svg version="1.1" id="Group_27" xmlns="http://www.w3.org/2000/svg" xmlns:xlink="http://www.w3.org/1999/xlink" x="0px" y="0px"
	 viewBox="0 0 13.3 15.3" style="enable-background:new 0 0 13.3 15.3;" xml:space="preserve">
<style type="text/css">
	.st0{fill:#18B8C4;}
</style>
<path id="Path_24" class="st0" d="M11.4,1.8H8.9C8.6,0.6,7.4-0.2,6.2,0C5.3,0.2,4.6,0.9,4.4,1.8H1.9C0.9,1.8,0,2.6,0,3.6v0.1
	C0,4.4,0.5,5,1.2,5.3v8.2c0,1,0.9,1.8,1.9,1.7h7.2c1,0,1.8-0.7,1.9-1.7V5.3c0.7-0.2,1.2-0.9,1.2-1.6V3.6C13.3,2.6,12.4,1.8,11.4,1.8
	z M6.6,0.8c0.6,0,1.2,0.4,1.3,1H5.3C5.5,1.2,6,0.8,6.6,0.8z M11.2,13.5c0,0.5-0.5,0.9-1,0.9H3.1c-0.5,0-1-0.4-1-0.9V5.4h9.1
	L11.2,13.5z M12.4,3.7c0,0.5-0.5,0.9-1,0.9H1.9c-0.5,0-1-0.4-1-0.9V3.6c0-0.5,0.5-0.9,1-0.9h9.5C11.9,2.6,12.4,3,12.4,3.7L12.4,3.7
	L12.4,3.7z"/>
<path id="Path_25" class="st0" d="M4.3,13.2c0.2,0,0.5-0.2,0.5-0.5c0,0,0,0,0,0V7.7c0-0.2-0.2-0.5-0.4-0.5C4,7.2,3.8,7.4,3.8,7.6
	c0,0,0,0,0,0.1v5.1C3.8,13,4,13.2,4.3,13.2z"/>
<path id="Path_26" class="st0" d="M6.6,13.2c0.2,0,0.5-0.2,0.5-0.5c0,0,0,0,0,0V7.7c0-0.2-0.2-0.5-0.4-0.5c-0.2,0-0.5,0.2-0.5,0.4
	c0,0,0,0,0,0.1v5.1C6.2,13,6.4,13.2,6.6,13.2z"/>
<path id="Path_27" class="st0" d="M9,13.2c0.2,0,0.5-0.2,0.5-0.5V7.7c0-0.2-0.2-0.5-0.4-0.5c-0.2,0-0.5,0.2-0.5,0.4c0,0,0,0,0,0.1
	v5.1C8.6,13,8.8,13.2,9,13.2z"/>
</svg>
