<?xml version="1.0" encoding="utf-8"?>
<!-- Generator: Adobe Illustrator 23.0.1, SVG Export Plug-In . SVG Version: 6.00 Build 0)  -->
<svg version="1.1" id="Layer_1" xmlns="http://www.w3.org/2000/svg" xmlns:xlink="http://www.w3.org/1999/xlink" x="0px" y="0px"
	 viewBox="0 0 13.3 15.3" style="enable-background:new 0 0 13.3 15.3;" xml:space="preserve">
<style type="text/css">
	.st0{fill:#18B8C4;}
</style>
<g id="refresh" transform="translate(-9.461)">
	<g id="Group_28" transform="translate(9.461)">
		<path id="Path_28" class="st0" d="M13.2,6.7c0-0.3-0.3-0.5-0.6-0.5c0,0,0,0,0,0c-0.3,0.1-0.5,0.4-0.4,0.7v0
			c0.6,3.3-1.4,6.4-4.7,7.2C4.4,14.6,1.4,12.4,1,9.3C1,9.2,1,9.1,1,9C0.3,5.8,2.4,2.6,5.6,1.8c1.9-0.3,3.9,0.4,5.1,1.9L8.5,4.6
			C8.2,4.7,8.1,5,8.2,5.3l0,0c0.1,0.3,0.3,0.4,0.6,0.4c0,0,0,0,0,0l0,0l3.1-1.1c0.2-0.1,0.4-0.3,0.4-0.5V0.6c0-0.3-0.2-0.5-0.5-0.6
			s-0.5,0.2-0.6,0.5c0,0,0,0.1,0,0.1v2.1C8.9,0.1,5-0.1,2.4,2.3C2.2,2.5,2,2.7,1.8,2.9c-2.5,3-2.4,7.4,0.2,10.3
			c2.3,2.5,6.3,2.7,8.8,0.4c0.2-0.2,0.4-0.4,0.6-0.6C12.9,11.3,13.6,9,13.2,6.7z"/>
	</g>
</g>
</svg>
