<?xml version="1.0" encoding="utf-8"?>
<!-- Generator: Adobe Illustrator 23.0.1, SVG Export Plug-In . SVG Version: 6.00 Build 0)  -->
<svg version="1.1" id="Layer_1" xmlns="http://www.w3.org/2000/svg" xmlns:xlink="http://www.w3.org/1999/xlink" x="0px" y="0px"
	 viewBox="0 0 13.3 13.3" style="enable-background:new 0 0 13.3 13.3;" xml:space="preserve">
<style type="text/css">
	.st0{fill:none;}
	.st1{fill:#18B8C4;}
</style>
<rect id="User" class="st0" width="13.3" height="13.3"/>
<path id="Path_9" class="st1" d="M6.7,7.4c2.8,0,5.2,1.9,6,4.5c0,0.1,0.1,0.2,0,0.3c-0.1,0.2-0.4,0.2-0.4-0.1
	c-0.6-2-2.1-3.5-4.1-4.1C6.5,7.5,4.6,7.9,3.1,9.1c-0.9,0.8-1.6,1.8-1.9,3c0,0-0.2,0.3-0.3,0.1s0-0.5,0.1-0.9C1.9,9,4.1,7.4,6.6,7.4
	C6.6,7.4,6.7,7.4,6.7,7.4z M6.7,1.2c1.5,0,2.7,1.3,2.7,2.8c0,1.1-0.7,2.1-1.7,2.5C6.4,7,4.9,6.5,4.3,5.2c-0.6-1.4,0-3,1.3-3.7
	C5.9,1.3,6.3,1.2,6.7,1.2z M6.7,1.7C5.4,1.7,4.4,2.7,4.4,4c0,0.9,0.6,1.8,1.4,2.1c1.2,0.5,2.6-0.2,3.1-1.4C8.9,4.6,9,4.4,9,4.3
	C9.2,3,8.2,1.8,6.9,1.7C6.9,1.7,6.8,1.7,6.7,1.7L6.7,1.7z"/>
</svg>
